HIERARCHY
ROOT Hips
{
 OFFSET 0.000000 0.000000 0.000000
 CHANNELS 6 Xposition Yposition Zposition Yrotation Xrotation Zrotation
 JOINT Chest
 {
  OFFSET 0.000000 9.585900 0.002600
  CHANNELS 3 Yrotation Xrotation Zrotation
  JOINT Chest2
  {
   OFFSET 0.000000 9.601200 -0.005300
   CHANNELS 3 Yrotation Xrotation Zrotation
   JOINT Chest3
   {
    OFFSET 0.000000 9.561800 0.000000
    CHANNELS 3 Yrotation Xrotation Zrotation
    JOINT Chest4
    {
     OFFSET 0.000000 9.552100 0.000000
     CHANNELS 3 Yrotation Xrotation Zrotation
     JOINT Neck
     {
      OFFSET 0.000000 14.453000 0.000000
      CHANNELS 3 Yrotation Xrotation Zrotation
      JOINT Head
      {
       OFFSET 0.000000 8.936500 -0.011300
       CHANNELS 3 Yrotation Xrotation Zrotation
       End Site
       {
        OFFSET 0.000000 17.073600 -0.006000
       }
      }
     }
     JOINT RightCollar
     {
      OFFSET -2.921100 9.558500 0.000000
      CHANNELS 3 Yrotation Xrotation Zrotation
      JOINT RightShoulder
      {
       OFFSET -13.519700 0.000000 0.000000
       CHANNELS 3 Yrotation Xrotation Zrotation
       JOINT RightElbow
       {
        OFFSET 0.000000 -29.696600 0.000000
        CHANNELS 3 Yrotation Xrotation Zrotation
        JOINT RightWrist
        {
         OFFSET 0.000000 -24.004700 0.000000
         CHANNELS 3 Yrotation Xrotation Zrotation
         End Site
         {
          OFFSET 0.000000 -17.728500 0.000000
         }
        }
       }
      }
     }
     JOINT LeftCollar
     {
      OFFSET 2.921100 9.558500 0.000000
      CHANNELS 3 Yrotation Xrotation Zrotation
      JOINT LeftShoulder
      {
       OFFSET 13.519700 0.000000 0.000000
       CHANNELS 3 Yrotation Xrotation Zrotation
       JOINT LeftElbow
       {
        OFFSET 0.000000 -29.696600 0.000000
        CHANNELS 3 Yrotation Xrotation Zrotation
        JOINT LeftWrist
        {
         OFFSET 0.000000 -24.004700 0.000000
         CHANNELS 3 Yrotation Xrotation Zrotation
         End Site
         {
          OFFSET 0.000000 -17.728500 0.000000
         }
        }
       }
      }
     }
    }
   }
  }
 }
 JOINT RightHip
 {
  OFFSET -7.771700 -0.012900 -0.001300
  CHANNELS 3 Yrotation Xrotation Zrotation
  JOINT RightKnee
  {
   OFFSET 0.000000 -40.869800 0.001200
   CHANNELS 3 Yrotation Xrotation Zrotation
   JOINT RightAnkle
   {
    OFFSET 0.000000 -39.717900 0.002100
    CHANNELS 3 Yrotation Xrotation Zrotation
    JOINT RightToe
    {
     OFFSET 0.000000 -4.965400 11.033500
     CHANNELS 3 Yrotation Xrotation Zrotation
     End Site
     {
      OFFSET 0.000000 -1.423100 5.872300
     }
    }
   }
  }
 }
 JOINT LeftHip
 {
  OFFSET 7.771700 -0.012900 -0.001300
  CHANNELS 3 Yrotation Xrotation Zrotation
  JOINT LeftKnee
  {
   OFFSET 0.000000 -40.869800 0.001200
   CHANNELS 3 Yrotation Xrotation Zrotation
   JOINT LeftAnkle
   {
    OFFSET 0.000000 -39.717900 0.002100
    CHANNELS 3 Yrotation Xrotation Zrotation
    JOINT LeftToe
    {
     OFFSET 0.000000 -4.965400 11.033500
     CHANNELS 3 Yrotation Xrotation Zrotation
     End Site
     {
      OFFSET 0.000000 -1.423100 5.872300
     }
    }
   }
  }
 }
}
MOTION
Frames: 5
Frame Time: 0.008333
0.000000 85.388000 0.000000 0.000000 -5.767877 0.000000 0.000000 11.653817 0.000000 0.000000 -5.885947 0.000000 0.000000 -0.000000 0.000000 0.000000 -0.000000 0.000000 0.000000 12.528835 0.000000 0.000000 0.711642 0.000000 0.000000 -0.000000 0.000000 0.000000 0.000000 -90.000000 0.000000 -2.309062 0.000000 0.000000 2.309062 0.000000 0.000000 -0.000000 0.000000 0.000000 -0.000000 90.000000 0.000000 -2.309062 0.000000 0.000000 2.309062 0.000000 0.000000 8.520406 0.000000 0.000000 1.905762 0.000000 -0.000000 -4.658285 0.000000 0.000000 -0.000000 0.000000 0.000000 8.520406 0.000000 0.000000 1.905762 0.000000 -0.000000 -4.658285 0.000000 0.000000 -0.000000 0.000000
-114.191963 51.872835 -46.970624 177.622794 -18.538245 -0.021596 0.074457 14.203904 -0.195524 0.012233 1.220399 0.019564 0.021068 2.064734 0.033241 0.103323 12.743053 0.216527 -2.927403 15.885287 -0.050252 -3.058879 -9.034934 0.543060 5.524469 14.920180 12.474298 32.856215 -3.221425 -30.099830 151.826226 -54.107195 -179.849439 -1.067471 4.715046 -4.258546 -5.860492 13.808356 -14.487367 -26.594496 4.260710 30.056560 -178.458471 -49.112052 -156.752238 17.798128 8.683210 15.120423 -15.415332 -63.486650 9.018738 -72.971764 80.198011 -80.867292 -3.965920 -8.909522 6.825525 0.260114 -0.578104 0.101201 12.500681 -62.056122 -10.766201 25.847240 84.254205 31.202371 -2.672392 -10.484110 0.996958 0.081699 0.290800 0.033777
-114.191460 51.871784 -46.973155 177.615190 -18.534404 -0.021788 0.055345 14.198384 -0.202362 0.010644 1.219614 0.019568 -0.004133 2.059575 0.029873 0.122234 12.744650 0.215869 -2.897803 15.884589 -0.086834 -2.997593 -9.045463 0.418887 5.521633 14.929245 12.478541 32.789991 -3.178243 -30.172978 150.382072 -54.009780 -178.507597 -1.138862 4.541827 -2.652884 -5.823909 13.805171 -14.571041 -26.585823 4.264486 30.219380 -177.828193 -49.413703 -157.287534 17.846289 8.819574 14.494774 -15.446025 -63.487849 9.049424 -72.955776 80.198414 -80.859858 -3.958837 -8.900159 6.818038 0.260209 -0.592176 0.104945 12.496698 -62.063471 -10.757055 25.878345 84.260592 31.231068 -2.670969 -10.483901 0.997502 0.081957 0.287700 0.032859
-114.188945 51.869688 -46.973457 177.584900 -18.513911 -0.029034 0.040288 14.175821 -0.208940 0.030162 1.217690 0.027191 -0.001840 2.060585 0.026884 0.137323 12.745420 0.220218 -2.893579 15.870148 -0.215300 -2.947620 -9.037125 0.386525 5.481679 14.922741 12.481468 32.763151 -3.113415 -30.252233 148.857963 -53.891531 -177.099128 -1.187797 4.367747 -1.120864 -5.810827 13.797120 -14.650366 -26.586035 4.263081 30.382034 -176.931716 -49.783309 -158.012435 17.863582 8.990328 13.911601 -15.489008 -63.500456 9.117781 -72.931160 80.198940 -80.842759 -3.925684 -8.934024 6.821275 0.210336 -0.564624 0.092502 12.500545 -62.088952 -10.730330 25.906520 84.266456 31.259383 -2.656968 -10.476750 1.002151 0.071411 0.276989 0.025810
-114.187449 51.868189 -46.976260 177.570585 -18.506995 -0.036293 0.046460 14.169174 -0.203169 0.017581 1.218076 0.022824 -0.005896 2.056447 0.025027 0.128555 12.743235 0.218981 -2.857007 15.865653 -0.308063 -2.900401 -9.035067 0.321922 5.512535 14.926874 12.483772 32.735042 -3.071581 -30.322675 147.233899 -53.750021 -175.601662 -1.205414 4.196380 0.340261 -5.779172 13.794885 -14.726414 -26.602095 4.259363 30.544327 -175.756852 -50.204294 -158.921362 17.826195 9.210965 13.358209 -15.514611 -63.502483 9.155369 -72.941785 80.168169 -80.849681 -3.897189 -8.920981 6.807639 0.212314 -0.570163 0.094686 12.480534 -62.102384 -10.698780 25.986139 84.274979 31.337428 -2.660826 -10.484959 0.997507 0.071046 0.278838 0.026655
